:SAMPLES-PER-SECOND 30
:FULLY-SPECIFIED
:DEGREES
135
root  -37.1602 38.5159 14.4033 157.116 72.1154 156.975
RightUpLeg  20.3717 -13.5304 -4.15488
RightLeg  14.9663 1.27683 4.6005
RightFoot  -20.8645 -0.482745 -4.14817
RightToes  0.00048216 0.542163 -0.142577
Spine  15.0539 7.40013 13.8935
Spine1  12.7271 14.2573 -14.555
HEad  -5.42692 -20.3287 7.06894
LeftShoulder1  9.18525 -13.7167 -46.5333
LeftArm  -17.616 35.2209 -23.5439
LeftForeArm  39.9248 -77.0966 -57.0002
LeftHand  -0.25398 0.0180481 5.50724
RightShoulder  6.21352 11.8654 34.4686
RightArm  50.2581 37.3728 65.3213
RightForeArm  -40.8307 21.9492 7.73186
RightHand  -0.0559305 -6.85359 0.454128
LeftUpLeg  -24.2989 -0.16699 -11.1895
LeftLeg  8.04404 9.87863 -2.79368
LeftFoot  -2.45263 0.207548 -2.59369
LeftToes  1.06246e-005 4.65856e-005 -8.18501e-006
136
root  -35.2252 38.2766 14.2885 152.414 73.1625 152.383
RightUpLeg  21.9327 -18.1466 -8.08821
RightLeg  19.7124 8.95805 4.90572
RightFoot  -18.511 -0.193856 -0.969045
RightToes  0.00048216 0.542163 -0.142577
Spine  15.1919 8.20162 11.8127
Spine1  12.6176 14.8126 -14.4945
HEad  -4.96162 -20.2524 7.24575
LeftShoulder1  8.95729 -13.43 -46.1357
LeftArm  -19.017 35.9636 -24.0373
LeftForeArm  39.5117 -76.9826 -56.0448
LeftHand  -0.25398 0.0180481 5.50724
RightShoulder  6.37343 11.91 35.3744
RightArm  49.0308 36.237 65.0049
RightForeArm  -39.6014 21.6362 7.84992
RightHand  -0.0575938 -6.62944 0.80461
LeftUpLeg  -24.9233 4.20656 -14.5301
LeftLeg  13.5702 2.93135 -0.400547
LeftFoot  1.74324 -0.0136161 0.0566294
LeftToes  1.06246e-005 4.65856e-005 -8.18501e-006
137
root  -33.3418 38.1765 14.2369 147.427 73.828 147.561
RightUpLeg  20.2513 -18.175 -10.0088
RightLeg  27.8755 11.8279 6.28428
RightFoot  -11.1961 -0.112715 3.98573
RightToes  0.00048216 0.542163 -0.142577
Spine  15.9799 8.79777 9.52267
Spine1  12.0965 15.1295 -14.5691
HEad  -4.52414 -20.2799 7.54087
LeftShoulder1  8.83836 -13.3542 -45.715
LeftArm  -20.4002 36.3818 -24.4497
LeftForeArm  36.8341 -76.5291 -53.1241
LeftHand  -0.25398 0.0180481 5.50724
RightShoulder  6.55354 12.0477 36.1496
RightArm  47.3313 35.154 64.8627
RightForeArm  -38.0061 21.2669 7.97978
RightHand  -0.0583121 -6.43594 1.14087
LeftUpLeg  -25.1787 5.63238 -15.5155
LeftLeg  18.9893 1.66175 1.16761
LeftFoot  3.47363 -0.218503 1.54541
LeftToes  1.06246e-005 4.65856e-005 -8.18501e-006
138
root  -31.6313 38.1895 14.1843 143.418 74.2192 143.546
RightUpLeg  14.4645 -15.0518 -10.033
RightLeg  39.1473 9.61665 8.00517
RightFoot  1.72817 -0.925437 8.20129
RightToes  0.00048216 0.542163 -0.142577
Spine  16.9481 8.91587 7.88374
Spine1  11.9077 15.2828 -15.2038
HEad  -4.23715 -20.0244 7.55275
LeftShoulder1  8.86445 -13.5301 -45.3639
LeftArm  -21.1848 36.5445 -24.5309
LeftForeArm  34.0199 -76.0376 -50.4765
LeftHand  -0.25398 0.0180481 5.50724
RightShoulder  6.67206 12.2345 36.3957
RightArm  46.3166 34.6228 65.1472
RightForeArm  -36.7547 20.9797 8.08722
RightHand  -0.0632705 -6.47678 1.54564
LeftUpLeg  -24.7366 4.44418 -14.9418
LeftLeg  23.4231 4.01525 2.23034
LeftFoot  1.40089 -0.292319 2.56859
LeftToes  1.06246e-005 4.65856e-005 -8.18501e-006
139
root  -30.119 38.2292 14.1214 140.347 74.2894 140.183
RightUpLeg  6.54478 -13.1936 -10.3244
RightLeg  50.8454 5.89335 7.26738
RightFoot  12.6306 -1.99748 9.92119
RightToes  0.00048216 0.542163 -0.142577
Spine  17.7427 8.69625 6.32409
Spine1  12.2252 15.1058 -15.8047
HEad  -4.10183 -19.1853 7.09259
LeftShoulder1  8.89295 -13.6659 -45.1412
LeftArm  -21.296 36.5001 -24.4393
LeftForeArm  31.8349 -75.6254 -48.5253
LeftHand  -0.25398 0.0180481 5.50724
RightShoulder  6.72642 12.3719 36.3705
RightArm  46.4188 34.7306 65.7303
RightForeArm  -36.2811 20.886 8.12609
RightHand  -0.069219 -6.7333 1.61338
LeftUpLeg  -23.7764 3.73517 -15.0536
LeftLeg  26.2623 5.10728 3.07241
LeftFoot  -2.50049 -0.2406 3.279
LeftToes  1.06246e-005 4.65856e-005 -8.18501e-006
140
root  -28.6116 38.4105 14.0604 139.397 74.4218 139.02
RightUpLeg  -1.46429 -12.7616 -10.4694
RightLeg  60.5496 1.8604 3.05181
RightFoot  14.7977 -1.91699 8.6446
RightToes  0.00048216 0.542163 -0.142577
Spine  18.3559 8.34149 5.13841
Spine1  12.3832 14.5505 -15.6641
HEad  -3.9903 -18.1019 6.41019
LeftShoulder1  8.85929 -13.6214 -45.0851
LeftArm  -20.7595 36.0556 -24.3825
LeftForeArm  29.5574 -75.1097 -46.2602
LeftHand  -0.25398 0.0180481 5.50724
RightShoulder  6.77747 12.4032 36.6018
RightArm  46.5221 35.093 66.0297
RightForeArm  -36.1098 21.0012 8.02894
RightHand  -0.0637998 -6.87589 0.976997
LeftUpLeg  -21.7076 3.38375 -14.687
LeftLeg  27.0858 5.42276 3.35154
LeftFoot  -5.61746 -0.110241 2.85566
LeftToes  1.06246e-005 4.65856e-005 -8.18501e-006
141
root  -27.0218 38.8332 13.9938 141.268 74.991 140.939
RightUpLeg  -8.68269 -13.4722 -9.69633
RightLeg  66.0816 -0.690421 -2.25893
RightFoot  11.0221 -0.975721 5.27818
RightToes  0.00048216 0.542163 -0.142577
Spine  19.0169 7.89368 5.16308
Spine1  12.1519 13.9698 -15.0292
HEad  -3.78159 -17.3277 5.88081
LeftShoulder1  8.84676 -13.5924 -45.0983
LeftArm  -19.6207 35.1657 -24.4308
LeftForeArm  26.6304 -74.3571 -43.3486
LeftHand  -0.25398 0.0180481 5.50724
RightShoulder  6.82364 12.3694 36.973
RightArm  45.4663 35.2823 65.7605
RightForeArm  -35.5972 21.2946 7.76383
RightHand  -0.0491904 -6.75419 0.00984712
LeftUpLeg  -18.2754 3.50623 -13.1872
LeftLeg  25.7766 5.46618 3.21223
LeftFoot  -7.23494 -0.01535 1.65205
LeftToes  1.06246e-005 4.65856e-005 -8.18501e-006
142
root  -25.4348 39.2734 13.9142 144.737 75.745 144.469
RightUpLeg  -15.2219 -14.2806 -8.2822
RightLeg  66.8303 -1.6891 -4.99803
RightFoot  6.75772 -0.371852 2.66929
RightToes  0.00048216 0.542163 -0.142577
Spine  19.7193 7.48217 5.95915
Spine1  11.914 13.5807 -14.6423
HEad  -3.45869 -16.8857 5.59221
LeftShoulder1  8.89828 -13.716 -45.033
LeftArm  -18.2557 34.2132 -24.6048
LeftForeArm  23.6392 -73.5226 -40.5983
LeftHand  -0.25398 0.0180481 5.50724
RightShoulder  6.80392 12.3349 36.9428
RightArm  43.8146 35.2519 65.2851
RightForeArm  -34.8774 21.7129 7.41965
RightHand  -0.0414766 -6.68543 -0.553138
LeftUpLeg  -14.5636 3.79576 -11.2768
LeftLeg  23.8115 5.3501 2.91969
LeftFoot  -8.71165 0.034419 0.801172
LeftToes  1.06246e-005 4.65856e-005 -8.18501e-006
143
root  -23.8316 39.634 13.8149 149.825 76.2497 149.588
RightUpLeg  -20.7979 -14.9839 -6.69997
RightLeg  63.4136 -1.97465 -4.89579
RightFoot  4.59225 -0.208753 1.72666
RightToes  0.00048216 0.542163 -0.142577
Spine  20.1982 6.92557 7.12972
Spine1  11.7561 13.1171 -14.4443
HEad  -3.09648 -16.3883 5.34363
LeftShoulder1  8.9429 -13.8629 -44.8693
LeftArm  -17.167 33.5789 -24.919
LeftForeArm  21.3796 -72.8329 -38.6123
LeftHand  -0.25398 0.0180481 5.50724
RightShoulder  6.71599 12.3078 36.4739
RightArm  43.0738 35.3121 65.032
RightForeArm  -34.5005 22.1197 7.16
RightHand  -0.042029 -6.95785 -0.527381
LeftUpLeg  -10.7552 4.09001 -9.3193
LeftLeg  21.534 4.68881 2.38223
LeftFoot  -10.367 0.0588187 0.414864
LeftToes  1.06246e-005 4.65856e-005 -8.18501e-006
144
root  -22.2024 39.8961 13.7127 155.426 76.285 155.308
RightUpLeg  -24.837 -15.9255 -5.23316
RightLeg  56.3693 -2.30514 -4.16074
RightFoot  2.79597 -0.160979 1.45324
RightToes  0.00048216 0.542163 -0.142577
Spine  20.5138 6.23507 8.23074
Spine1  11.6453 12.4488 -14.0986
HEad  -2.75553 -15.7 4.95683
LeftShoulder1  8.93022 -13.9217 -44.6447
LeftArm  -16.4287 33.2555 -25.391
LeftForeArm  19.9094 -72.3633 -37.3865
LeftHand  -0.25398 0.0180481 5.50724
RightShoulder  6.61667 12.2509 36.0092
RightArm  43.8521 35.712 64.9368
RightForeArm  -34.7386 22.473 7.01446
RightHand  -0.0471888 -7.29246 -0.330997
LeftUpLeg  -6.88213 4.3369 -7.38064
LeftLeg  19.1988 3.78224 1.75819
LeftFoot  -11.4903 0.0690708 0.0553481
LeftToes  1.06246e-005 4.65856e-005 -8.18501e-006
145
root  -20.5126 39.9534 13.6309 158.582 75.8897 158.604
RightUpLeg  -27.0136 -17.2485 -4.33107
RightLeg  45.8248 -2.83577 -3.43798
RightFoot  0.463485 -0.165006 1.63657
RightToes  0.00048216 0.542163 -0.142577
Spine  20.6072 5.71879 8.46719
Spine1  11.6474 11.8099 -13.7731
HEad  -2.39466 -15.0662 4.4904
LeftShoulder1  8.89128 -13.9609 -44.3365
LeftArm  -15.6903 33.0835 -25.9758
LeftForeArm  18.918 -72.1233 -36.8493
LeftHand  -0.25398 0.0180481 5.50724
RightShoulder  6.52662 12.1427 35.7307
RightArm  45.4783 36.3046 64.6768
RightForeArm  -35.5556 22.957 6.88513
RightHand  -0.0471493 -7.24667 -0.380086
LeftUpLeg  -3.4899 4.18815 -5.94897
LeftLeg  18.1171 3.5395 1.34331
LeftFoot  -12.6987 0.0775062 0.019047
LeftToes  1.06246e-005 4.65856e-005 -8.18501e-006
146
root  -18.6908 39.8067 13.5667 158.713 75.2231 158.674
RightUpLeg  -27.8487 -19.5589 -3.72734
RightLeg  32.4762 -2.62838 -2.34697
RightFoot  -1.08898 -0.217006 2.32781
RightToes  0.00048216 0.542163 -0.142577
Spine  20.1287 5.51225 7.76271
Spine1  11.7577 11.3654 -13.5737
HEad  -1.95804 -14.7105 4.14411
LeftShoulder1  8.86008 -14.0231 -44.0083
LeftArm  -14.7539 32.9967 -26.4211
LeftForeArm  18.3418 -72.0831 -36.8481
LeftHand  -0.25398 0.0180481 5.50724
RightShoulder  6.42645 11.9884 35.505
RightArm  46.8341 36.7286 64.106
RightForeArm  -36.5316 23.7613 6.77774
RightHand  -0.0418775 -7.04023 -0.588272
LeftUpLeg  -0.33027 3.87012 -5.28095
LeftLeg  17.7636 3.55222 0.975189
LeftFoot  -14.7942 0.09712 0.283623
LeftToes  1.06246e-005 4.65856e-005 -8.18501e-006
147
root  -16.7788 39.6079 13.4988 158.291 74.4556 157.96
RightUpLeg  -27.4682 -20.516 -4.20599
RightLeg  17.4783 -4.35746 -0.302252
RightFoot  -1.53635 -0.271505 3.03589
RightToes  0.00048216 0.542163 -0.142577
Spine  19.2754 5.42709 7.22325
Spine1  11.9515 11.0449 -13.1918
HEad  -1.52864 -14.6173 3.95952
LeftShoulder1  8.8361 -14.0323 -43.8586
LeftArm  -13.9883 32.9211 -26.5352
LeftForeArm  18.0548 -72.0588 -36.834
LeftHand  -0.25398 0.0180481 5.50724
RightShoulder  6.32344 11.8127 35.3129
RightArm  47.2199 36.8527 63.3894
RightForeArm  -36.9757 24.7851 6.88112
RightHand  -0.0412245 -7.26349 -0.657624
LeftUpLeg  3.35334 3.71866 -4.67507
LeftLeg  16.1988 2.95274 0.253469
LeftFoot  -16.8902 0.0894889 -0.215088
LeftToes  1.06246e-005 4.65856e-005 -8.18501e-006
148
root  -14.7918 39.2982 13.4425 157.714 73.4882 157.237
RightUpLeg  -24.8956 -13.6342 -9.47771
RightLeg  3.27965 -14.8262 4.00681
RightFoot  -2.44085 -0.318344 3.90056
RightToes  0.00048216 0.542163 -0.142577
Spine  18.5419 5.26076 6.89347
Spine1  12.1334 10.7157 -12.9378
HEad  -1.21015 -14.6508 3.70796
LeftShoulder1  8.82202 -13.9793 -43.925
LeftArm  -14.0306 32.836 -26.6505
LeftForeArm  17.5208 -71.8459 -36.3066
LeftHand  -0.25398 0.0180481 5.50724
RightShoulder  6.23903 11.6736 35.1387
RightArm  47.3169 36.8546 62.9649
RightForeArm  -37.198 25.673 7.1139
RightHand  -0.0411897 -7.84211 -0.687155
LeftUpLeg  7.11193 4.08943 -3.76964
LeftLeg  14.9884 1.39372 -0.577024
LeftFoot  -18.5274 0.00973546 -1.61668
LeftToes  1.06246e-005 4.65856e-005 -8.18501e-006
